<?xml version="1.0" encoding="UTF-8"?>
<svg width="752pt" height="752pt" version="1.1" viewBox="0 0 752 752" xmlns="http://www.w3.org/2000/svg">
 <path d="m216.42 161.42c-4.0664 0.015625-7.3555 3.3047-7.3711 7.3711v21.188c0.007813 4.0703 3.3008 7.3672 7.3711 7.3828 1.9648 0.007813 3.8516-0.76562 5.2461-2.1484 1.3906-1.3867 2.1758-3.2695 2.1797-5.2344v-21.188c-0.007812-1.9648-0.79297-3.8438-2.1875-5.2266-1.3906-1.3789-3.2773-2.1523-5.2383-2.1445zm309.38 47.52c-1.9609 0.007812-3.8398 0.79297-5.2227 2.1875s-2.1562 3.2773-2.1484 5.2422v18.789h-18.789 0.003906c-1.9648-0.007812-3.8477 0.76172-5.2422 2.1445-1.3945 1.3828-2.1797 3.2617-2.1875 5.2227-0.007813 1.9727 0.77344 3.8672 2.168 5.2617 1.3945 1.3945 3.2891 2.1758 5.2617 2.168h18.789v18.789h-0.003906c0.007812 4.0703 3.3008 7.3711 7.3711 7.3867 1.9648 0.007813 3.8555-0.76953 5.2461-2.1523 1.3945-1.3867 2.1797-3.2695 2.1836-5.2344v-18.789h18.789c1.9609-0.007813 3.8398-0.79297 5.2227-2.1875 1.3828-1.3945 2.1562-3.2773 2.1484-5.2422-0.015625-4.0625-3.3086-7.3516-7.3711-7.3672h-18.789v-18.789c0.007812-1.9727-0.77344-3.8672-2.168-5.2617s-3.2891-2.1758-5.2617-2.168zm-357.02 0.10156c-4.0703 0.015626-7.3633 3.3164-7.3711 7.3828-0.007812 1.9648 0.76562 3.8477 2.1484 5.2422 1.3789 1.3945 3.2578 2.1797 5.2227 2.1875h21.203c4.0859-0.015624 7.3867-3.3398 7.3672-7.4258-0.007812-4.0703-3.3008-7.3711-7.3672-7.3867zm74.129 0h-0.003906c-1.9648-0.007812-3.8516 0.76563-5.2461 2.1523-1.3906 1.3828-2.1758 3.2656-2.1797 5.2305-0.007813 1.9727 0.76953 3.8672 2.168 5.2617 1.3945 1.3945 3.2852 2.1758 5.2578 2.168h21.145c1.9727 0.007813 3.8672-0.77344 5.2617-2.168 1.3945-1.3945 2.1758-3.2891 2.168-5.2617-0.003907-1.9648-0.78906-3.8477-2.1836-5.2305-1.3906-1.3867-3.2812-2.1602-5.2461-2.1523zm-26.492 26.449c-1.9648 0.003907-3.8438 0.79297-5.2266 2.1875-1.3828 1.3906-2.1523 3.2773-2.1445 5.2383v21.188c0.015625 4.0664 3.3047 7.3555 7.3711 7.3711 1.9609 0.007813 3.8477-0.76562 5.2383-2.1445 1.3945-1.3828 2.1797-3.2617 2.1875-5.2266v-21.188c0.007812-1.9727-0.76953-3.8672-2.1641-5.2617-1.3984-1.3945-3.2891-2.1719-5.2617-2.1641zm56.855 44.137c-2.6836 0.007812-5.1484 1.4688-6.4453 3.8164l-45.656 82.652c-1.5469 2.8086-1.1094 6.2891 1.082 8.6289l148.31 159.38c1.3984 1.4961 3.3555 2.3438 5.4062 2.3438 2.0469 0 4.0039-0.84766 5.4062-2.3438l148.36-159.38c2.1758-2.3477 2.5938-5.832 1.0391-8.6289l-45.672-82.652h0.003907c-1.3008-2.3477-3.7656-3.8086-6.4492-3.8164zm17.113 14.801h70.773l-35.395 64.055zm100.4 0h70.773l-35.395 64.055zm-115.21 3.7734 35.395 64.066h-70.758zm200.8 0 9.7109 17.59 25.652 46.48h-70.758zm-100.4 0.015625 35.379 64.055h-70.773zm-131.32 78.852h73.492l40.223 122.24zm89.07 0h84.477l-42.246 128.28zm100.11 0h73.449l-113.7 122.21zm101.69 103.41h-0.003906c-1.9727-0.007812-3.8672 0.76953-5.2617 2.1641-1.3945 1.3984-2.1719 3.2891-2.1641 5.2617v21.188c0.003907 1.9648 0.78906 3.8477 2.1797 5.2344 1.3945 1.3867 3.2812 2.1602 5.2461 2.1523 4.0703-0.015625 7.3633-3.3164 7.3711-7.3867v-21.188c0.007812-1.9609-0.76172-3.8477-2.1445-5.2383-1.3828-1.3945-3.2617-2.1797-5.2266-2.1875zm-47.637 47.68v-0.003906c-1.9648-0.003907-3.8555 0.76953-5.2461 2.1523-1.3945 1.3867-2.1797 3.2695-2.1836 5.2344-0.007813 1.9727 0.77344 3.8672 2.168 5.2617 1.3945 1.3945 3.2891 2.1758 5.2617 2.168h21.145-0.003906c1.9727 0.007812 3.8672-0.77344 5.2617-2.168s2.1758-3.2891 2.168-5.2617c-0.003906-1.9648-0.78906-3.8477-2.1836-5.2344-1.3906-1.3828-3.2773-2.1562-5.2461-2.1523zm74.07 0-0.003906-0.003906c-4.0703 0.019531-7.3633 3.3164-7.3711 7.3867-0.007813 1.9648 0.76562 3.8477 2.1484 5.2422 1.3828 1.3906 3.2617 2.1797 5.2227 2.1875h21.203c1.9727 0.007812 3.8672-0.77344 5.2617-2.168s2.1758-3.2891 2.168-5.2617c-0.003906-1.9648-0.78906-3.8477-2.1836-5.2344-1.3945-1.3828-3.2812-2.1562-5.2461-2.1523zm-26.434 26.449-0.003906-0.003906c-1.9727-0.007812-3.8672 0.77344-5.2617 2.168s-2.1719 3.2891-2.1641 5.2617v21.129c-0.007812 1.9727 0.76953 3.8672 2.1641 5.2617s3.2891 2.1758 5.2617 2.168c1.9648-0.007813 3.8438-0.79688 5.2266-2.1875 1.3828-1.3945 2.1523-3.2773 2.1445-5.2422v-21.129c0.007812-1.9609-0.76172-3.8477-2.1445-5.2422-1.3828-1.3906-3.2617-2.1797-5.2266-2.1875z"/>
</svg>
