<?xml version="1.0" encoding="UTF-8"?>
<svg width="752pt" height="752pt" version="1.1" viewBox="0 0 752 752" xmlns="http://www.w3.org/2000/svg">
 <defs>
  <clipPath id="a">
   <path d="m206 139.21h340v473.58h-340z"/>
  </clipPath>
 </defs>
 <g clip-path="url(#a)">
  <path d="m527.78 345.35h-9.4609v-14.969c0-0.68359-0.1875-1.3555-0.54297-1.9414l-53.094-87.93v-79.68c0-11.922-9.6797-21.621-21.574-21.621h-134.22c-11.895 0-21.574 9.6992-21.574 21.621v79.68l-53.094 87.93c-0.35547 0.58594-0.54297 1.2578-0.54297 1.9414v14.969h-9.4609c-9.5703 0-17.352 7.8008-17.352 17.391v26.516c0 9.5898 7.7852 17.395 17.355 17.395h9.4609v14.969c0 0.68359 0.1875 1.3555 0.54297 1.9414l53.094 87.93v79.68c0 11.922 9.6797 21.621 21.574 21.621h134.22c11.895 0 21.574-9.6992 21.574-21.621v-79.68l53.094-87.93c0.35547-0.58594 0.54297-1.2578 0.54297-1.9414v-14.969h9.4609c9.5703 0 17.355-7.8047 17.355-17.395v-26.516c-0.003906-9.5898-7.7891-17.391-17.359-17.391zm-294.1 53.785h-9.4648c-5.4258 0-9.8398-4.4297-9.8398-9.875v-26.516c0-5.4453 4.4141-9.875 9.8398-9.875h9.4609zm61.152-238.3c0-7.7773 6.3047-14.105 14.059-14.105h134.22c7.75 0 14.059 6.3281 14.059 14.105v27.672h-37.859l-3.8672-19.379c-0.35156-1.7578-1.8945-3.0234-3.6875-3.0234h-71.508c-1.793 0-3.3359 1.2656-3.6875 3.0234l-3.8711 19.379h-37.855zm0 66.566h162.33v10.402l-162.33-0.003906zm86.344 40.328v23.125c0 2.8711-2.3242 5.207-5.1758 5.207-1.3789 0-2.6758-0.53906-3.6484-1.5156-0.98438-0.99219-1.5273-2.3008-1.5273-3.6914v-23.125zm-117.64 103.07h23.059c2.8594 0 5.1875 2.3359 5.1875 5.207 0 1.3945-0.53906 2.7031-1.5195 3.6836s-2.2812 1.5195-3.6641 1.5195h-23.062zm193.62 220.38c0 7.7773-6.3047 14.105-14.059 14.105l-134.22-0.003906c-7.75 0-14.059-6.3281-14.059-14.105v-27.672h37.859l3.8672 19.379c0.35156 1.7578 1.8945 3.0234 3.6875 3.0234h71.508c1.793 0 3.3359-1.2656 3.6875-3.0234l3.8672-19.379h37.859zm0-66.566h-162.33v-10.402h162.33zm-86.344-40.328v-23.125c0-1.3906 0.54297-2.7031 1.5195-3.6836 0.98047-0.98047 2.2773-1.5195 3.6562-1.5195 2.8555 0 5.1758 2.3359 5.1758 5.207v23.125zm117.63-103.07h-23.059c-1.3828 0-2.6836-0.53906-3.6641-1.5195s-1.5195-2.2891-1.5195-3.6836c0-2.8711 2.3281-5.207 5.1875-5.207h23.059v10.41zm0-17.93h-23.059c-7.0039 0-12.703 5.707-12.703 12.723 0 3.4062 1.3203 6.6016 3.7227 9 2.4023 2.4023 5.5898 3.7227 8.9805 3.7227h23.059v26.531l-19.648 31.516c-4.1953-3.0391-8.4258-6.0352-12.551-8.9492-5.0898-3.5977-10.352-7.3164-15.461-11.07-1.6719-1.2266-4.0273-0.87109-5.2539 0.80078-1.2305 1.6719-0.87109 4.0273 0.80078 5.2539 5.1641 3.7969 10.457 7.5352 15.574 11.152 4.2461 3 8.6055 6.0859 12.902 9.207l-4.2695 6.8438c-5.043 8.0898-10.086 16.176-15.125 24.266h-56.73v-23.125c0-7.0156-5.6953-12.723-12.695-12.723-3.3867 0-6.5703 1.3203-8.9805 3.7305-2.3945 2.4102-3.7148 5.6016-3.7148 8.9922v23.125h-56.734c-5.0391-8.0898-10.082-16.176-15.125-24.266l-4.2695-6.8438c4.2969-3.1211 8.6562-6.207 12.902-9.207 5.1172-3.6172 10.41-7.3555 15.574-11.152 1.6719-1.2305 2.0312-3.582 0.80078-5.2539-1.2266-1.6719-3.5781-2.0312-5.2539-0.80078-5.1055 3.7539-10.367 7.4727-15.461 11.07-4.125 2.9141-8.3594 5.9102-12.551 8.9492l-19.645-31.516v-26.531h23.059c3.3906 0 6.582-1.3203 8.9805-3.7227 2.4023-2.3984 3.7227-5.5977 3.7227-9 0-7.0156-5.6992-12.723-12.703-12.723h-23.059v-26.531l19.648-31.516c4.1953 3.0391 8.4258 6.0352 12.551 8.9492 5.0898 3.5977 10.352 7.3164 15.461 11.07 0.67188 0.49219 1.4492 0.73047 2.2227 0.73047 1.1562 0 2.293-0.53125 3.0312-1.5312 1.2305-1.6719 0.87109-4.0273-0.80078-5.2539-5.1641-3.7969-10.457-7.5352-15.574-11.152-4.2461-3-8.6055-6.0859-12.902-9.207l4.2695-6.8438c5.043-8.0898 10.086-16.176 15.125-24.266h56.734v23.125c0 3.3906 1.3203 6.5859 3.7227 9 2.4023 2.4023 5.5859 3.7227 8.9727 3.7227 7 0 12.695-5.707 12.695-12.723v-23.125h56.734c5.0391 8.0898 10.082 16.176 15.125 24.266l4.2695 6.8438c-4.2969 3.1211-8.6562 6.207-12.902 9.207-5.1172 3.6172-10.41 7.3555-15.574 11.152-1.6719 1.2305-2.0312 3.582-0.80078 5.2539 0.73438 1 1.875 1.5312 3.0312 1.5312 0.77344 0 1.5508-0.23828 2.2227-0.73047 5.1055-3.7539 10.367-7.4727 15.461-11.07 4.125-2.9141 8.3594-5.9102 12.551-8.9492l19.648 31.516zm49.164 25.984c0 5.4453-4.4141 9.875-9.8398 9.875h-9.4609v-46.27h9.4609c5.4258 0 9.8398 4.4297 9.8398 9.875z"/>
 </g>
 <path d="m413.35 296.41c-1.875-0.87891-4.1172-0.074218-5 1.8047l-30.598 65.195c-0.57812-0.082031-1.1641-0.13672-1.7539-0.13672-7 0-12.695 5.707-12.695 12.723 0 2.0938 0.50781 4.1172 1.4648 5.9297l-40.594 40.711c-1.4648 1.4688-1.4648 3.8516 0.007813 5.3164 0.73438 0.73047 1.6953 1.0977 2.6523 1.0977 0.96484 0 1.9258-0.36719 2.6602-1.1055l40.574-40.691c1.8047 0.95703 3.8242 1.4648 5.9258 1.4648 7 0 12.695-5.707 12.695-12.723 0-3.6133-1.5547-7.0117-4.1367-9.3867l30.598-65.203c0.88672-1.8789 0.078125-4.1172-1.8008-4.9961z"/>
</svg>
