<?xml version="1.0" encoding="UTF-8"?>
<svg width="752pt" height="752pt" version="1.1" viewBox="0 0 752 752" xmlns="http://www.w3.org/2000/svg">
 <path d="m601.58 437.72c0.023438-26-6.6992-51.559-19.516-74.18l12.086-90.645v-0.003907c0.14062-1.0547-0.18359-2.125-0.88672-2.9258-0.70312-0.80469-1.7148-1.2617-2.7852-1.2617h-48.098v-11.102c0-0.98047-0.39062-1.9219-1.082-2.6172-0.69531-0.69141-1.6367-1.082-2.6172-1.082h-40.699v-3.6992c0-33.047-17.629-63.582-46.246-80.105-28.621-16.523-63.879-16.523-92.496 0-28.621 16.523-46.25 47.059-46.25 80.105v3.6992h-26.191l-7.3086-13.145c-1.707-3.0625-4.2891-5.543-7.418-7.125l-7.0664-28.285v-14.344c-0.011718-8.8281-3.5234-17.293-9.7656-23.535-6.2422-6.2422-14.707-9.7539-23.535-9.7617-7.293-0.007813-14.422 2.1758-20.461 6.2656-6.0391 4.0898-10.711 9.8984-13.414 16.672l-1.7578 4.3945c-2.8359 7.043-7.8555 12.996-14.316 16.984-12.645 7.793-20.344 21.582-20.348 36.434v0.69531-0.003906c-2.3984 3.1875-3.6992 7.0664-3.6992 11.055v79.363-0.003906c0.003906 6.8125 1.7109 13.512 4.9688 19.488l12.457 22.836-13.672 77.465c-0.1875 1.0781 0.10938 2.1836 0.8125 3.0195 0.70312 0.83984 1.7383 1.3242 2.832 1.3242h15.367l-21.777 136.21c-0.20312 1.082 0.085937 2.1992 0.78906 3.0469 0.70312 0.84766 1.7461 1.3359 2.8477 1.3359h61.973c1.6289 0 3.0664-1.0664 3.5391-2.6289 0.47266-1.5586-0.13281-3.2461-1.4883-4.1484l-20.219-13.48 19.492-120.34h17.176v136.89c0 0.98047 0.38672 1.9219 1.082 2.6133 0.69531 0.69531 1.6328 1.0859 2.6172 1.0859h59.199-0.003906c1.6328 0 3.0703-1.0664 3.543-2.6289 0.47266-1.5586-0.13281-3.2461-1.4883-4.1484l-10.082-6.7227 129.34 6.5977c1.0352 0.054687 2.0625 0.078125 3.082 0.078125 11.305 0.023438 22.379-3.207 31.895-9.3047 9.5195-6.0977 17.082-14.805 21.789-25.086l12.227-26.492c4.8125-10.387 11.16-19.992 18.832-28.488h46.043c1.8555 0 3.4219-1.375 3.668-3.2109l2.2617-16.957c3.332 3.7656 5.1719 8.625 5.168 13.652v86.625c0 0.98438 0.39062 1.9219 1.0859 2.6172 0.69141 0.69531 1.6328 1.0859 2.6133 1.0859h14.801c1.9648 0 3.5898-1.5391 3.6953-3.5l7.3984-136.89v-0.066406c0-0.046875 0.007812-0.09375 0.007812-0.13672zm-402.62 134.37h-29.531l18.535-118.39h30.172zm35.594-187.96c-0.25781 1.6914-1.7109 2.9375-3.4219 2.9336h-0.019531l-4.5977-0.027344h-0.027343c-1.3359 0-2.5625 0.71875-3.2188 1.8789-0.65625 1.1602-0.64063 2.582 0.046874 3.7227l6.8594 11.434-22.832 11.422-38.168-69.98c-2.6641-4.8945-4.0664-10.375-4.0703-15.949v-79.359c0-6.1289 4.9688-11.102 11.102-11.102 6.1289 0 11.098 4.9727 11.098 11.102v81.398-0.003907c0 0.67188 0.18359 1.332 0.52734 1.9062l28.812 48.016c0.66406 1.1094 1.8633 1.7891 3.1562 1.7969l14.867 0.0625zm0.81641-126.86-24.223-18.164h2.0547c0.98047 0 1.9219-0.38672 2.6172-1.082 0.69531-0.69531 1.082-1.6367 1.082-2.6172v-25.898c0-0.98047-0.38672-1.9219-1.082-2.6172-0.69531-0.69141-1.6367-1.082-2.6172-1.082-2.043 0-3.6992-1.6562-3.6992-3.6992s1.6562-3.6992 3.6992-3.6992c0.90625-0.003906 1.7812 0.32812 2.4531 0.93359 1.5 1.3516 3.8008 1.2539 5.1797-0.21875 1.0039-1.0703 2.1602-1.9805 3.4375-2.7031 4.9141-2.7891 8.5664-7.3555 10.199-12.762 4.7266 0.47656 8.3203 4.4492 8.332 9.1992v16.113c-0.011719 6.4219-5.2148 11.625-11.637 11.637-0.83984 0-1.6797-0.074219-2.5078-0.21875-2.0117-0.36328-3.9336 0.97266-4.2969 2.9844-0.36328 2.0078 0.97266 3.9336 2.9844 4.2969 1.2617 0.22656 2.5391 0.33594 3.8203 0.33594 0.18359 0 0.35547-0.023437 0.53516-0.027343v7.4258c0 0.98047 0.39062 1.9219 1.082 2.6172 0.69531 0.69531 1.6367 1.082 2.6172 1.082h8.0352zm299.61 55.836v14.801h-133.2v-14.801zm-111 51.797v22.199h-37v-22.199zm-88.797-114.7c0-25.117 13.398-48.324 35.148-60.879 21.75-12.559 48.547-12.559 70.297 0 21.75 12.555 35.148 35.762 35.148 60.879v3.6992h-140.59zm-60.613 8.1289h0.003906c0-0.92188-0.046875-1.8438-0.14062-2.7617l-1.0586-10.582 32.676 58.809c0.65625 1.1758 1.8945 1.9062 3.2383 1.9023h59.199c1.5508 0 2.9375-0.96875 3.4727-2.4258l3.8086-10.379c1.2852 1.6836 1.6523 3.8945 0.98047 5.9062l-0.67578 2.0352c-0.375 1.125-0.18359 2.3672 0.51172 3.332 0.69922 0.96484 1.8164 1.5352 3.0039 1.5312h14.801v22.199h-81.609c-5.9414 0-11.773-1.5938-16.895-4.6055-5.1211-3.0156-9.3398-7.3477-12.227-12.543l-17.867-32.207 0.003907 0.003906c5.582-5.2422 8.7578-12.555 8.7734-20.215zm5.2266 292.02c-1.7422 1.5938-3.3164 3.3555-4.7031 5.2617-3.5039 4.8477-5.6758 10.527-6.3047 16.477h-18.59v-118.39h29.598zm146.14-35.051h-50.059c-0.39844 0-0.79297 0.066406-1.1719 0.19141l-82.543 27.555c-1.707 0.57031-3.3711 1.2734-4.9727 2.1016v-47.055h152.96zm131.7-24.609h-35.531c7.0117-6.5234 14.812-12.141 23.227-16.715l5.7109-3.0938c0.09375 0.007812 0.17188 0.027343 0.26172 0.027343 3.0078-0.003906 5.9844 0.65625 8.7109 1.9297zm13.719-143.93h-0.003906c-0.64844-0.97266-1.7188-1.582-2.8867-1.6406-1.168-0.058594-2.2969 0.4375-3.043 1.3398l-119.15 144.23h-159.07v-36.996h6.0234c1.1758 0 2.2852-0.5625 2.9805-1.5078 0.69531-0.94922 0.90234-2.1719 0.55078-3.2969l-39.105-125.11 3.2383-38.844 7.707 13.895 0.10547 32.77 0.003906 0.003906c0.003907 1.3984 0.79297 2.6719 2.043 3.2969l42.555 21.332 7.1211 49.879c0.26172 1.8281 1.8242 3.1797 3.668 3.1797h162.79c1.8398 0 3.4023-1.3555 3.6602-3.1797l7.1211-49.879 42.664-21.332 0.003907 0.003906c1.2539-0.62891 2.0469-1.9102 2.0469-3.3125v-55.496h43.871l-10.332 77.496z"/>
</svg>
